<mxfile host="Electron" modified="2024-05-28T19:51:40.763Z" agent="Mozilla/5.0 (Windows NT 10.0; Win64; x64) AppleWebKit/537.36 (KHTML, like Gecko) draw.io/24.2.5 Chrome/120.0.6099.109 Electron/28.1.0 Safari/537.36" etag="VK4KwiQNwrzy1eePxKjd" version="24.2.5" type="device">
  <diagram name="使用案例圖" id="Yl148u14gGX9kU_zwqoo">
    <mxGraphModel dx="2261" dy="836" grid="1" gridSize="10" guides="1" tooltips="1" connect="1" arrows="1" fold="1" page="1" pageScale="1" pageWidth="827" pageHeight="1169" math="0" shadow="0">
      <root>
        <mxCell id="0" />
        <mxCell id="1" parent="0" />
        <mxCell id="pyWRpl_zN9KXEDkuFeAj-1" value="使用者" style="shape=umlActor;verticalLabelPosition=bottom;verticalAlign=top;html=1;" parent="1" vertex="1">
          <mxGeometry x="-5" y="260" width="30" height="60" as="geometry" />
        </mxCell>
        <mxCell id="pyWRpl_zN9KXEDkuFeAj-5" value="&lt;font style=&quot;font-size: 14px;&quot;&gt;會員資料管理&lt;/font&gt;" style="ellipse;whiteSpace=wrap;html=1;" parent="1" vertex="1">
          <mxGeometry x="-210" y="90" width="180" height="60" as="geometry" />
        </mxCell>
        <mxCell id="pyWRpl_zN9KXEDkuFeAj-6" value="&lt;font style=&quot;font-size: 14px;&quot;&gt;商家條件查詢&lt;/font&gt;" style="ellipse;whiteSpace=wrap;html=1;" parent="1" vertex="1">
          <mxGeometry x="90" y="240" width="180" height="60" as="geometry" />
        </mxCell>
        <mxCell id="pyWRpl_zN9KXEDkuFeAj-7" value="&lt;font style=&quot;font-size: 14px;&quot;&gt;商家資訊檢視&lt;/font&gt;" style="ellipse;whiteSpace=wrap;html=1;" parent="1" vertex="1">
          <mxGeometry x="210" y="330" width="180" height="60" as="geometry" />
        </mxCell>
        <mxCell id="pyWRpl_zN9KXEDkuFeAj-20" value="&lt;span style=&quot;font-size: 14px;&quot;&gt;爬蟲資料確認&lt;/span&gt;" style="ellipse;whiteSpace=wrap;html=1;" parent="1" vertex="1">
          <mxGeometry x="-380" y="260" width="180" height="60" as="geometry" />
        </mxCell>
        <mxCell id="pyWRpl_zN9KXEDkuFeAj-21" value="&lt;span style=&quot;font-size: 14px;&quot;&gt;爬蟲程式控制&lt;/span&gt;" style="ellipse;whiteSpace=wrap;html=1;" parent="1" vertex="1">
          <mxGeometry x="-380" y="330" width="180" height="60" as="geometry" />
        </mxCell>
        <mxCell id="pyWRpl_zN9KXEDkuFeAj-22" value="管理者" style="shape=umlActor;verticalLabelPosition=bottom;verticalAlign=top;html=1;" parent="1" vertex="1">
          <mxGeometry x="-130" y="270" width="30" height="60" as="geometry" />
        </mxCell>
        <mxCell id="pyWRpl_zN9KXEDkuFeAj-23" value="" style="endArrow=none;html=1;rounded=0;entryX=1;entryY=0.5;entryDx=0;entryDy=0;exitX=0;exitY=0.3333333333333333;exitDx=0;exitDy=0;exitPerimeter=0;" parent="1" source="pyWRpl_zN9KXEDkuFeAj-22" target="pyWRpl_zN9KXEDkuFeAj-20" edge="1">
          <mxGeometry width="50" height="50" relative="1" as="geometry">
            <mxPoint x="-290" y="219.23529411764707" as="sourcePoint" />
            <mxPoint x="-530" y="191" as="targetPoint" />
          </mxGeometry>
        </mxCell>
        <mxCell id="pyWRpl_zN9KXEDkuFeAj-24" value="" style="endArrow=none;html=1;rounded=0;entryX=1;entryY=0.5;entryDx=0;entryDy=0;exitX=0;exitY=0.5;exitDx=0;exitDy=0;exitPerimeter=0;" parent="1" source="pyWRpl_zN9KXEDkuFeAj-22" target="pyWRpl_zN9KXEDkuFeAj-21" edge="1">
          <mxGeometry width="50" height="50" relative="1" as="geometry">
            <mxPoint x="-290" y="220" as="sourcePoint" />
            <mxPoint x="-720" y="540" as="targetPoint" />
          </mxGeometry>
        </mxCell>
        <mxCell id="pyWRpl_zN9KXEDkuFeAj-26" value="&lt;span style=&quot;font-size: 14px;&quot;&gt;爬蟲程式執行&lt;/span&gt;" style="ellipse;whiteSpace=wrap;html=1;" parent="1" vertex="1">
          <mxGeometry x="-270" y="430" width="180" height="60" as="geometry" />
        </mxCell>
        <mxCell id="Er3Z3KmMZLWfYeELGhga-12" value="&lt;span style=&quot;font-size: 14px;&quot;&gt;管理帳號建立&lt;/span&gt;" style="ellipse;whiteSpace=wrap;html=1;" parent="1" vertex="1">
          <mxGeometry x="-380" y="190" width="180" height="60" as="geometry" />
        </mxCell>
        <mxCell id="Er3Z3KmMZLWfYeELGhga-13" value="" style="endArrow=none;html=1;rounded=0;entryX=1;entryY=0.5;entryDx=0;entryDy=0;exitX=0;exitY=0.167;exitDx=0;exitDy=0;exitPerimeter=0;" parent="1" source="pyWRpl_zN9KXEDkuFeAj-22" target="Er3Z3KmMZLWfYeELGhga-12" edge="1">
          <mxGeometry width="50" height="50" relative="1" as="geometry">
            <mxPoint x="-280" y="220" as="sourcePoint" />
            <mxPoint x="-340" y="230" as="targetPoint" />
          </mxGeometry>
        </mxCell>
        <mxCell id="Er3Z3KmMZLWfYeELGhga-16" value="&lt;font style=&quot;font-size: 14px;&quot;&gt;會員註冊&lt;/font&gt;" style="ellipse;whiteSpace=wrap;html=1;" parent="1" vertex="1">
          <mxGeometry x="-70" y="150" width="180" height="60" as="geometry" />
        </mxCell>
        <mxCell id="Ry65CyLy9paVWarDxG0m-1" value="&lt;span style=&quot;font-size: 14px;&quot;&gt;特定商家推薦&lt;/span&gt;" style="ellipse;whiteSpace=wrap;html=1;" vertex="1" parent="1">
          <mxGeometry x="10" y="410" width="180" height="60" as="geometry" />
        </mxCell>
        <mxCell id="Ry65CyLy9paVWarDxG0m-3" value="系統" style="shape=umlActor;verticalLabelPosition=bottom;verticalAlign=top;html=1;" vertex="1" parent="1">
          <mxGeometry x="-70" y="350" width="30" height="60" as="geometry" />
        </mxCell>
        <mxCell id="Ry65CyLy9paVWarDxG0m-4" value="" style="endArrow=none;html=1;rounded=0;entryX=0;entryY=0.5;entryDx=0;entryDy=0;exitX=1;exitY=0.5;exitDx=0;exitDy=0;startArrow=open;startFill=0;dashed=1;" edge="1" parent="1" source="pyWRpl_zN9KXEDkuFeAj-5" target="pyWRpl_zN9KXEDkuFeAj-3">
          <mxGeometry width="50" height="50" relative="1" as="geometry">
            <mxPoint x="430" y="270" as="sourcePoint" />
            <mxPoint x="480" y="220" as="targetPoint" />
          </mxGeometry>
        </mxCell>
        <mxCell id="Ry65CyLy9paVWarDxG0m-5" value="&amp;lt;&amp;lt;include&amp;gt;&amp;gt;" style="edgeLabel;html=1;align=center;verticalAlign=middle;resizable=0;points=[];" vertex="1" connectable="0" parent="Ry65CyLy9paVWarDxG0m-4">
          <mxGeometry x="0.0245" y="-1" relative="1" as="geometry">
            <mxPoint x="-7" y="-16" as="offset" />
          </mxGeometry>
        </mxCell>
        <mxCell id="Ry65CyLy9paVWarDxG0m-6" value="" style="endArrow=none;html=1;rounded=0;entryX=0.21;entryY=0.918;entryDx=0;entryDy=0;exitX=0.5;exitY=0;exitDx=0;exitDy=0;startArrow=open;startFill=0;entryPerimeter=0;dashed=1;" edge="1" parent="1" source="pyWRpl_zN9KXEDkuFeAj-6" target="pyWRpl_zN9KXEDkuFeAj-3">
          <mxGeometry width="50" height="50" relative="1" as="geometry">
            <mxPoint x="210" y="250" as="sourcePoint" />
            <mxPoint x="320" y="220" as="targetPoint" />
          </mxGeometry>
        </mxCell>
        <mxCell id="Ry65CyLy9paVWarDxG0m-7" value="&amp;lt;&amp;lt;include&amp;gt;&amp;gt;" style="edgeLabel;html=1;align=center;verticalAlign=middle;resizable=0;points=[];" vertex="1" connectable="0" parent="Ry65CyLy9paVWarDxG0m-6">
          <mxGeometry x="0.0245" y="-1" relative="1" as="geometry">
            <mxPoint x="-7" y="-16" as="offset" />
          </mxGeometry>
        </mxCell>
        <mxCell id="Ry65CyLy9paVWarDxG0m-8" value="" style="endArrow=none;html=1;rounded=0;entryX=0.5;entryY=1;entryDx=0;entryDy=0;exitX=0.5;exitY=0;exitDx=0;exitDy=0;startArrow=open;startFill=0;dashed=1;" edge="1" parent="1" source="pyWRpl_zN9KXEDkuFeAj-7" target="pyWRpl_zN9KXEDkuFeAj-3">
          <mxGeometry width="50" height="50" relative="1" as="geometry">
            <mxPoint x="230" y="270" as="sourcePoint" />
            <mxPoint x="340" y="200" as="targetPoint" />
          </mxGeometry>
        </mxCell>
        <mxCell id="Ry65CyLy9paVWarDxG0m-9" value="&amp;lt;&amp;lt;include&amp;gt;&amp;gt;" style="edgeLabel;html=1;align=center;verticalAlign=middle;resizable=0;points=[];" vertex="1" connectable="0" parent="Ry65CyLy9paVWarDxG0m-8">
          <mxGeometry x="0.0245" y="-1" relative="1" as="geometry">
            <mxPoint x="-7" y="-16" as="offset" />
          </mxGeometry>
        </mxCell>
        <mxCell id="Ry65CyLy9paVWarDxG0m-12" value="" style="endArrow=none;html=1;rounded=0;entryX=0.033;entryY=0.71;entryDx=0;entryDy=0;entryPerimeter=0;exitX=1;exitY=0;exitDx=0;exitDy=0;exitPerimeter=0;" edge="1" parent="1" source="pyWRpl_zN9KXEDkuFeAj-1" target="pyWRpl_zN9KXEDkuFeAj-3">
          <mxGeometry width="50" height="50" relative="1" as="geometry">
            <mxPoint x="60" y="280" as="sourcePoint" />
            <mxPoint x="270" y="270" as="targetPoint" />
          </mxGeometry>
        </mxCell>
        <mxCell id="Ry65CyLy9paVWarDxG0m-14" value="" style="endArrow=none;html=1;rounded=0;exitX=0.5;exitY=1;exitDx=0;exitDy=0;" edge="1" parent="1" source="pyWRpl_zN9KXEDkuFeAj-5">
          <mxGeometry width="50" height="50" relative="1" as="geometry">
            <mxPoint x="40" y="270" as="sourcePoint" />
            <mxPoint x="-10" y="260" as="targetPoint" />
          </mxGeometry>
        </mxCell>
        <mxCell id="Ry65CyLy9paVWarDxG0m-15" value="" style="endArrow=none;html=1;rounded=0;exitX=0;exitY=0.5;exitDx=0;exitDy=0;" edge="1" parent="1" source="pyWRpl_zN9KXEDkuFeAj-6">
          <mxGeometry width="50" height="50" relative="1" as="geometry">
            <mxPoint x="20" y="200" as="sourcePoint" />
            <mxPoint x="30" y="280" as="targetPoint" />
          </mxGeometry>
        </mxCell>
        <mxCell id="Ry65CyLy9paVWarDxG0m-16" value="" style="endArrow=none;html=1;rounded=0;exitX=0;exitY=0.5;exitDx=0;exitDy=0;" edge="1" parent="1" source="pyWRpl_zN9KXEDkuFeAj-7">
          <mxGeometry width="50" height="50" relative="1" as="geometry">
            <mxPoint x="118" y="280" as="sourcePoint" />
            <mxPoint x="30" y="290" as="targetPoint" />
          </mxGeometry>
        </mxCell>
        <mxCell id="Ry65CyLy9paVWarDxG0m-17" value="" style="endArrow=none;html=1;rounded=0;exitX=0.5;exitY=1;exitDx=0;exitDy=0;" edge="1" parent="1" source="Er3Z3KmMZLWfYeELGhga-16">
          <mxGeometry width="50" height="50" relative="1" as="geometry">
            <mxPoint x="200" y="370" as="sourcePoint" />
            <mxPoint x="10" y="250" as="targetPoint" />
          </mxGeometry>
        </mxCell>
        <mxCell id="Ry65CyLy9paVWarDxG0m-18" value="" style="group" vertex="1" connectable="0" parent="1">
          <mxGeometry x="230" y="80" width="200" height="90" as="geometry" />
        </mxCell>
        <mxCell id="pyWRpl_zN9KXEDkuFeAj-3" value="&lt;font style=&quot;font-size: 14px;&quot;&gt;會員登入&lt;/font&gt;&lt;div&gt;&lt;font style=&quot;font-size: 14px;&quot;&gt;&lt;br&gt;&lt;/font&gt;&lt;/div&gt;&lt;div&gt;&lt;font style=&quot;font-size: 14px;&quot;&gt;&lt;br&gt;&lt;/font&gt;&lt;/div&gt;" style="ellipse;whiteSpace=wrap;html=1;" parent="Ry65CyLy9paVWarDxG0m-18" vertex="1">
          <mxGeometry width="200" height="90" as="geometry" />
        </mxCell>
        <mxCell id="Ry65CyLy9paVWarDxG0m-10" value="" style="endArrow=none;html=1;rounded=0;" edge="1" parent="Ry65CyLy9paVWarDxG0m-18">
          <mxGeometry width="50" height="50" relative="1" as="geometry">
            <mxPoint x="5" y="40" as="sourcePoint" />
            <mxPoint x="195" y="40" as="targetPoint" />
          </mxGeometry>
        </mxCell>
        <mxCell id="Ry65CyLy9paVWarDxG0m-11" value="&lt;div style=&quot;forced-color-adjust: none; color: rgb(0, 0, 0); font-family: Helvetica; font-size: 12px; font-style: normal; font-variant-ligatures: normal; font-variant-caps: normal; font-weight: 400; letter-spacing: normal; orphans: 2; text-indent: 0px; text-transform: none; widows: 2; word-spacing: 0px; -webkit-text-stroke-width: 0px; white-space: normal; background-color: rgb(251, 251, 251); text-decoration-thickness: initial; text-decoration-style: initial; text-decoration-color: initial;&quot;&gt;&lt;font style=&quot;forced-color-adjust: none; font-size: 14px;&quot;&gt;extension points&lt;/font&gt;&lt;/div&gt;&lt;div style=&quot;forced-color-adjust: none; color: rgb(0, 0, 0); font-family: Helvetica; font-size: 12px; font-style: normal; font-variant-ligatures: normal; font-variant-caps: normal; font-weight: 400; letter-spacing: normal; orphans: 2; text-indent: 0px; text-transform: none; widows: 2; word-spacing: 0px; -webkit-text-stroke-width: 0px; white-space: normal; background-color: rgb(251, 251, 251); text-decoration-thickness: initial; text-decoration-style: initial; text-decoration-color: initial;&quot;&gt;&lt;span style=&quot;forced-color-adjust: none; font-size: 14px; background-color: initial;&quot;&gt;無會員&lt;/span&gt;&lt;/div&gt;" style="text;whiteSpace=wrap;html=1;verticalAlign=middle;align=left;" vertex="1" parent="Ry65CyLy9paVWarDxG0m-18">
          <mxGeometry x="47.5" y="30" width="105" height="60" as="geometry" />
        </mxCell>
        <mxCell id="Ry65CyLy9paVWarDxG0m-19" value="" style="endArrow=open;html=1;rounded=0;entryX=0.006;entryY=0.594;entryDx=0;entryDy=0;exitX=1;exitY=0.5;exitDx=0;exitDy=0;startArrow=none;startFill=0;dashed=1;entryPerimeter=0;endFill=0;" edge="1" parent="1" source="Er3Z3KmMZLWfYeELGhga-16" target="pyWRpl_zN9KXEDkuFeAj-3">
          <mxGeometry width="50" height="50" relative="1" as="geometry">
            <mxPoint x="250" y="260" as="sourcePoint" />
            <mxPoint x="510" y="265" as="targetPoint" />
          </mxGeometry>
        </mxCell>
        <mxCell id="Ry65CyLy9paVWarDxG0m-20" value="&amp;lt;&amp;lt;extend&amp;gt;&amp;gt;" style="edgeLabel;html=1;align=center;verticalAlign=middle;resizable=0;points=[];" vertex="1" connectable="0" parent="Ry65CyLy9paVWarDxG0m-19">
          <mxGeometry x="0.0245" y="-1" relative="1" as="geometry">
            <mxPoint x="-17" y="-12" as="offset" />
          </mxGeometry>
        </mxCell>
        <mxCell id="Ry65CyLy9paVWarDxG0m-21" value="" style="endArrow=none;html=1;rounded=0;entryX=0.5;entryY=0;entryDx=0;entryDy=0;startArrow=open;startFill=0;dashed=1;exitX=0.5;exitY=1;exitDx=0;exitDy=0;" edge="1" parent="1" source="pyWRpl_zN9KXEDkuFeAj-6" target="Ry65CyLy9paVWarDxG0m-1">
          <mxGeometry width="50" height="50" relative="1" as="geometry">
            <mxPoint x="280" y="370" as="sourcePoint" />
            <mxPoint x="340" y="180" as="targetPoint" />
          </mxGeometry>
        </mxCell>
        <mxCell id="Ry65CyLy9paVWarDxG0m-22" value="&amp;lt;&amp;lt;include&amp;gt;&amp;gt;" style="edgeLabel;html=1;align=center;verticalAlign=middle;resizable=0;points=[];" vertex="1" connectable="0" parent="Ry65CyLy9paVWarDxG0m-21">
          <mxGeometry x="0.0245" y="-1" relative="1" as="geometry">
            <mxPoint x="35" y="-16" as="offset" />
          </mxGeometry>
        </mxCell>
        <mxCell id="Ry65CyLy9paVWarDxG0m-23" value="" style="endArrow=none;html=1;rounded=0;entryX=0;entryY=0.5;entryDx=0;entryDy=0;startArrow=open;startFill=0;dashed=1;exitX=0.5;exitY=1;exitDx=0;exitDy=0;" edge="1" parent="1" source="pyWRpl_zN9KXEDkuFeAj-21" target="pyWRpl_zN9KXEDkuFeAj-26">
          <mxGeometry width="50" height="50" relative="1" as="geometry">
            <mxPoint x="600" y="370" as="sourcePoint" />
            <mxPoint x="610" y="415" as="targetPoint" />
          </mxGeometry>
        </mxCell>
        <mxCell id="Ry65CyLy9paVWarDxG0m-24" value="&amp;lt;&amp;lt;include&amp;gt;&amp;gt;" style="edgeLabel;html=1;align=center;verticalAlign=middle;resizable=0;points=[];" vertex="1" connectable="0" parent="Ry65CyLy9paVWarDxG0m-23">
          <mxGeometry x="0.0245" y="-1" relative="1" as="geometry">
            <mxPoint x="-7" y="-16" as="offset" />
          </mxGeometry>
        </mxCell>
        <mxCell id="Ry65CyLy9paVWarDxG0m-26" value="" style="endArrow=none;html=1;rounded=0;exitX=0;exitY=0.5;exitDx=0;exitDy=0;" edge="1" parent="1" source="Ry65CyLy9paVWarDxG0m-1" target="Ry65CyLy9paVWarDxG0m-3">
          <mxGeometry width="50" height="50" relative="1" as="geometry">
            <mxPoint x="-120" y="310" as="sourcePoint" />
            <mxPoint x="-20" y="400" as="targetPoint" />
          </mxGeometry>
        </mxCell>
        <mxCell id="Ry65CyLy9paVWarDxG0m-28" value="" style="endArrow=none;html=1;rounded=0;exitX=0.5;exitY=0;exitDx=0;exitDy=0;" edge="1" parent="1" source="pyWRpl_zN9KXEDkuFeAj-26" target="Ry65CyLy9paVWarDxG0m-3">
          <mxGeometry width="50" height="50" relative="1" as="geometry">
            <mxPoint x="40" y="410" as="sourcePoint" />
            <mxPoint x="-70" y="400" as="targetPoint" />
          </mxGeometry>
        </mxCell>
      </root>
    </mxGraphModel>
  </diagram>
</mxfile>
